<svg width="1280" height="800" viewBox="0 0 1280 800" fill="none" xmlns="http://www.w3.org/2000/svg">
<rect width="1440" height="1024" fill="black"/>
<rect width="1440" height="1024" fill="url(#paint0_linear)"/>
<path d="M340 269L340.898 271.764H343.804L341.453 273.472L342.351 276.236L340 274.528L337.649 276.236L338.547 273.472L336.196 271.764H339.102L340 269Z" fill="white"/>
<path d="M931 425L931.898 427.764H934.804L932.453 429.472L933.351 432.236L931 430.528L928.649 432.236L929.547 429.472L927.196 427.764H930.102L931 425Z" fill="white"/>
<path d="M332 405L332.898 407.764H335.804L333.453 409.472L334.351 412.236L332 410.528L329.649 412.236L330.547 409.472L328.196 407.764H331.102L332 405Z" fill="white"/>
<path d="M1210 28L1210.9 30.7639H1213.8L1211.45 32.4721L1212.35 35.2361L1210 33.5279L1207.65 35.2361L1208.55 32.4721L1206.2 30.7639H1209.1L1210 28Z" fill="white"/>
<path d="M96 157L96.8981 159.764H99.8042L97.4531 161.472L98.3511 164.236L96 162.528L93.6489 164.236L94.5469 161.472L92.1958 159.764H95.1019L96 157Z" fill="white"/>
<path d="M504 95L504.898 97.7639H507.804L505.453 99.4721L506.351 102.236L504 100.528L501.649 102.236L502.547 99.4721L500.196 97.7639H503.102L504 95Z" fill="white"/>
<path d="M898 117L898.898 119.764H901.804L899.453 121.472L900.351 124.236L898 122.528L895.649 124.236L896.547 121.472L894.196 119.764H897.102L898 117Z" fill="white"/>
<path d="M1150 124L1150.9 126.764H1153.8L1151.45 128.472L1152.35 131.236L1150 129.528L1147.65 131.236L1148.55 128.472L1146.2 126.764H1149.1L1150 124Z" fill="white"/>
<path d="M332 46L332.898 48.7639H335.804L333.453 50.4721L334.351 53.2361L332 51.5279L329.649 53.2361L330.547 50.4721L328.196 48.7639H331.102L332 46Z" fill="white"/>
<path d="M984 76L984.898 78.7639H987.804L985.453 80.4721L986.351 83.2361L984 81.5279L981.649 83.2361L982.547 80.4721L980.196 78.7639H983.102L984 76Z" fill="white"/>
<path d="M348 645L348.898 647.764H351.804L349.453 649.472L350.351 652.236L348 650.528L345.649 652.236L346.547 649.472L344.196 647.764H347.102L348 645Z" fill="white"/>
<path d="M1180 684L1180.9 686.764H1183.8L1181.45 688.472L1182.35 691.236L1180 689.528L1177.65 691.236L1178.55 688.472L1176.2 686.764H1179.1L1180 684Z" fill="white"/>
<path d="M573 649L574.123 652.455H577.755L574.816 654.59L575.939 658.045L573 655.91L570.061 658.045L571.184 654.59L568.245 652.455H571.877L573 649Z" fill="white"/>
<path d="M1037 710L1038.12 713.455H1041.76L1038.82 715.59L1039.94 719.045L1037 716.91L1034.06 719.045L1035.18 715.59L1032.24 713.455H1035.88L1037 710Z" fill="white"/>
<path d="M268 710L269.123 713.455H272.755L269.816 715.59L270.939 719.045L268 716.91L265.061 719.045L266.184 715.59L263.245 713.455H266.877L268 710Z" fill="white"/>
<path d="M105 512L106.123 515.455H109.755L106.816 517.59L107.939 521.045L105 518.91L102.061 521.045L103.184 517.59L100.245 515.455H103.877L105 512Z" fill="white"/>
<path d="M628 261L629.123 264.455H632.755L629.816 266.59L630.939 270.045L628 267.91L625.061 270.045L626.184 266.59L623.245 264.455H626.877L628 261Z" fill="white"/>
<path d="M184 543L185.123 546.455H188.755L185.816 548.59L186.939 552.045L184 549.91L181.061 552.045L182.184 548.59L179.245 546.455H182.877L184 543Z" fill="white"/>
<path d="M756 725L757.123 728.455H760.755L757.816 730.59L758.939 734.045L756 731.91L753.061 734.045L754.184 730.59L751.245 728.455H754.877L756 725Z" fill="white"/>
<path d="M970 301L971.123 304.455H974.755L971.816 306.59L972.939 310.045L970 307.91L967.061 310.045L968.184 306.59L965.245 304.455H968.877L970 301Z" fill="white"/>
<path d="M400 608L401.123 611.455H404.755L401.816 613.59L402.939 617.045L400 614.91L397.061 617.045L398.184 613.59L395.245 611.455H398.877L400 608Z" fill="white"/>
<path d="M125 69L126.123 72.4549H129.755L126.816 74.5902L127.939 78.0451L125 75.9098L122.061 78.0451L123.184 74.5902L120.245 72.4549H123.877L125 69Z" fill="white"/>
<path d="M970 180L971.123 183.455H974.755L971.816 185.59L972.939 189.045L970 186.91L967.061 189.045L968.184 185.59L965.245 183.455H968.877L970 180Z" fill="white"/>
<path d="M1280.5 593L1282.18 598.182H1287.63L1283.22 601.385L1284.91 606.568L1280.5 603.365L1276.09 606.568L1277.78 601.385L1273.37 598.182H1278.82L1280.5 593Z" fill="white"/>
<path d="M1265.5 773L1267.18 778.182H1272.63L1268.22 781.385L1269.91 786.568L1265.5 783.365L1261.09 786.568L1262.78 781.385L1258.37 778.182H1263.82L1265.5 773Z" fill="white"/>
<path d="M785 535L786.123 538.455H789.755L786.816 540.59L787.939 544.045L785 541.91L782.061 544.045L783.184 540.59L780.245 538.455H783.877L785 535Z" fill="white"/>
<path d="M664 54L665.123 57.4549H668.755L665.816 59.5902L666.939 63.0451L664 60.9098L661.061 63.0451L662.184 59.5902L659.245 57.4549H662.877L664 54Z" fill="white"/>
<path d="M75 323L76.1226 326.455H79.7553L76.8164 328.59L77.9389 332.045L75 329.91L72.0611 332.045L73.1836 328.59L70.2447 326.455H73.8774L75 323Z" fill="white"/>
<path d="M778 165L779.123 168.455H782.755L779.816 170.59L780.939 174.045L778 171.91L775.061 174.045L776.184 170.59L773.245 168.455H776.877L778 165Z" fill="white"/>
<path d="M710 402L711.123 405.455H714.755L711.816 407.59L712.939 411.045L710 408.91L707.061 411.045L708.184 407.59L705.245 405.455H708.877L710 402Z" fill="white"/>
<path d="M283 125L284.123 128.455H287.755L284.816 130.59L285.939 134.045L283 131.91L280.061 134.045L281.184 130.59L278.245 128.455H281.877L283 125Z" fill="white"/>
<path d="M90 773L91.1226 776.455H94.7553L91.8164 778.59L92.9389 782.045L90 779.91L87.0611 782.045L88.1836 778.59L85.2447 776.455H88.8774L90 773Z" fill="white"/>
<path d="M1015 550L1016.12 553.455H1019.76L1016.82 555.59L1017.94 559.045L1015 556.91L1012.06 559.045L1013.18 555.59L1010.24 553.455H1013.88L1015 550Z" fill="white"/>
<path d="M1151 223L1152.12 226.455H1155.76L1152.82 228.59L1153.94 232.045L1151 229.91L1148.06 232.045L1149.18 228.59L1146.24 226.455H1149.88L1151 223Z" fill="white"/>
<path d="M573 520L574.123 523.455H577.755L574.816 525.59L575.939 529.045L573 526.91L570.061 529.045L571.184 525.59L568.245 523.455H571.877L573 520Z" fill="white"/>
<path d="M1166 410L1167.12 413.455H1170.76L1167.82 415.59L1168.94 419.045L1166 416.91L1163.06 419.045L1164.18 415.59L1161.24 413.455H1164.88L1166 410Z" fill="white"/>
<defs>
<linearGradient id="paint0_linear" x1="720" y1="0" x2="720" y2="1024" gradientUnits="userSpaceOnUse">
<stop offset="0.583333" stop-opacity="0.08"/>
<stop offset="0.9999" stop-color="white" stop-opacity="0.11"/>
<stop offset="1" stop-color="white" stop-opacity="0.47"/>
</linearGradient>
</defs>
</svg>

